<svg width="24.000000" height="24.000000" viewBox="0 0 24 24" fill="none" xmlns="http://www.w3.org/2000/svg" xmlns:xlink="http://www.w3.org/1999/xlink">
	<desc>
			Created with Pixso.
	</desc>
	<defs>
		<clipPath id="clip32_3208">
			<rect id="location" width="24.000000" height="24.000000" fill="white" fill-opacity="0"/>
		</clipPath>
	</defs>
	<g clip-path="url(#clip32_3208)">
		<path id="Icon" d="M12 23C12 23 3 17 3 10C3 7.61 3.94 5.32 5.63 3.63C7.32 1.94 9.61 1 12 1C14.38 1 16.67 1.94 18.36 3.63C20.05 5.32 21 7.61 21 10C21 17 12 23 12 23ZM12 13C10.34 13 9 11.65 9 10C9 8.34 10.34 7 12 7C13.65 7 15 8.34 15 10C15 11.65 13.65 13 12 13Z" stroke="#1E50FE" stroke-opacity="1.000000" stroke-width="2.000000" stroke-linejoin="round"/>
	</g>
</svg>
