<svg width="24.000000" height="24.000000" viewBox="0 0 24 24" fill="none" xmlns="http://www.w3.org/2000/svg" xmlns:xlink="http://www.w3.org/1999/xlink">
	<desc>
			Created with Pixso.
	</desc>
	<defs>
		<clipPath id="clip131_213">
			<rect id="folder" width="24.000000" height="24.000000" fill="white" fill-opacity="0"/>
		</clipPath>
	</defs>
	<g clip-path="url(#clip131_213)">
		<path id="Icon" d="M21.41 20.41C21.03 20.78 20.53 21 20 21L4 21C3.46 21 2.96 20.78 2.58 20.41C2.21 20.03 2 19.53 2 19L2 5C2 4.46 2.21 3.96 2.58 3.58C2.96 3.21 3.46 3 4 3L9 3L11 6L20 6C20.53 6 21.03 6.21 21.41 6.58C21.78 6.96 22 7.46 22 8L22 19C22 19.53 21.78 20.03 21.41 20.41Z" stroke="#161616" stroke-opacity="1.000000" stroke-width="2.000000" stroke-linejoin="round"/>
	</g>
</svg>
