<svg width="24.000000" height="24.000000" viewBox="0 0 24 24" fill="none" xmlns="http://www.w3.org/2000/svg" xmlns:xlink="http://www.w3.org/1999/xlink">
	<desc>
			Created with Pixso.
	</desc>
	<defs>
		<clipPath id="clip33_3579">
			<rect id="tg" width="24.000000" height="24.000000" fill="white" fill-opacity="0"/>
		</clipPath>
		<linearGradient x1="12.000000" y1="0.000000" x2="12.000000" y2="23.822004" id="paint_linear_33_3581_0" gradientUnits="userSpaceOnUse">
			<stop stop-color="#2AABEE"/>
			<stop offset="1.000000" stop-color="#229ED9"/>
		</linearGradient>
	</defs>
	<rect id="tg" width="24.000000" height="24.000000" fill="#FFFFFF" fill-opacity="0"/>
	<g clip-path="url(#clip33_3579)">
		<path id="Oval" d="M24 12C24 18.62 18.62 24 12 24C5.37 24 0 18.62 0 12C0 5.37 5.37 0 12 0C18.62 0 24 5.37 24 12Z" fill="url(#paint_linear_33_3581_0)" fill-opacity="1.000000" fill-rule="evenodd"/>
		<path id="Path 3" d="M5.89 11.64C9.39 10.12 11.72 9.12 12.89 8.63C16.22 7.24 16.91 7 17.37 7C17.46 6.99 17.69 7.02 17.83 7.13C17.95 7.23 17.99 7.37 18 7.46C18.02 7.55 18.04 7.77 18.02 7.93C17.84 9.83 17.06 14.43 16.66 16.56C16.49 17.46 16.16 17.76 15.84 17.79C15.15 17.85 14.62 17.33 13.94 16.89C12.88 16.19 12.29 15.76 11.26 15.09C10.08 14.31 10.85 13.88 11.52 13.18C11.7 12.99 14.77 10.2 14.83 9.95C14.83 9.92 14.84 9.8 14.77 9.73C14.7 9.67 14.6 9.69 14.52 9.71C14.42 9.73 12.73 10.85 9.46 13.06C8.98 13.39 8.55 13.55 8.16 13.54C7.73 13.53 6.91 13.29 6.3 13.1C5.54 12.85 4.95 12.72 5 12.31C5.02 12.09 5.32 11.87 5.89 11.64Z" fill="#FFFFFF" fill-opacity="1.000000" fill-rule="evenodd"/>
	</g>
</svg>
