<svg width="24.000000" height="24.000000" viewBox="0 0 24 24" fill="none" xmlns="http://www.w3.org/2000/svg" xmlns:xlink="http://www.w3.org/1999/xlink">
	<desc>
			Created with Pixso.
	</desc>
	<defs>
		<clipPath id="clip33_3575">
			<rect id="vk" width="24.000000" height="24.000000" fill="white" fill-opacity="0"/>
		</clipPath>
	</defs>
	<rect id="vk" width="24.000000" height="24.000000" fill="#FFFFFF" fill-opacity="0"/>
	<g clip-path="url(#clip33_3575)">
		<path id="Oval" d="M24 12C24 18.62 18.62 24 12 24C5.37 24 0 18.62 0 12C0 5.37 5.37 0 12 0C18.62 0 24 5.37 24 12Z" fill="#1E50FE" fill-opacity="1.000000" fill-rule="evenodd"/>
		<path id="path4" d="M18.67 9.54C18.77 9.22 18.67 9 18.21 9L16.68 9C16.29 9 16.11 9.19 16.01 9.41C16.01 9.41 15.23 11.24 14.13 12.43C13.77 12.77 13.61 12.88 13.42 12.88C13.32 12.88 13.18 12.77 13.18 12.46L13.18 9.54C13.18 9.16 13.07 9 12.74 9L10.33 9C10.09 9 9.94 9.17 9.94 9.33C9.94 9.69 10.5 9.77 10.55 10.77L10.55 12.94C10.55 13.42 10.46 13.5 10.27 13.5C9.75 13.5 8.49 11.67 7.74 9.57C7.59 9.16 7.44 9 7.05 9L5.52 9C5.08 9 5 9.19 5 9.41C5 9.8 5.51 11.74 7.41 14.3C8.68 16.05 10.46 17 12.08 17C13.06 17 13.18 16.78 13.18 16.42L13.18 15.1C13.18 14.68 13.27 14.6 13.58 14.6C13.81 14.6 14.2 14.7 15.1 15.55C16.14 16.55 16.31 17 16.9 17L18.43 17C18.87 17 19.08 16.78 18.96 16.37C18.82 15.96 18.33 15.35 17.67 14.64C17.31 14.24 16.77 13.8 16.61 13.58C16.39 13.3 16.45 13.17 16.61 12.92C16.61 12.92 18.48 10.4 18.67 9.54Z" fill="#FFFFFF" fill-opacity="1.000000" fill-rule="evenodd"/>
	</g>
</svg>
